<svg xmlns="http://www.w3.org/2000/svg" width="108" height="108" viewBox="0 0 108 108">
  <defs>
    <radialGradient id="bgGrad" gradientUnits="userSpaceOnUse" cx="54" cy="43" r="64">
      <stop offset="0" stop-color="#6a3bc8"/>
      <stop offset="0.55" stop-color="#2a1560"/>
      <stop offset="1" stop-color="#140c24"/>
    </radialGradient>
  </defs>
  <rect id="bg" x="0" y="0" width="108" height="108" fill="url(#bgGrad)"/>
  <g fill="#ffe27a" fill-opacity="0.85">
    <path d="M26,25.5 Q26,30 30.5,30 Q26,30 26,34.5 Q26,30 21.5,30 Q26,30 26,25.5 Z"/>
    <path d="M84,30.5 Q84,34 87.5,34 Q84,34 84,37.5 Q84,34 80.5,34 Q84,34 84,30.5 Z"/>
    <path d="M80,76 Q80,80 84,80 Q80,80 80,84 Q80,80 76,80 Q80,80 80,76 Z"/>
  </g>
</svg>
